Hellboy (2004) 1080p multi [mkvonly]

Format                           : Matroska
File size                        : 6.40 GiB
Duration                         : 2h 1mn
Overall bit rate                 : 7.5 MB/s

Video
Format/Info                      : Advanced Video Codec (AVC)
Format profile                   : High@L5.0
Bit rate                         : 6 MB/s
Display aspect ratio             : 1920 x 1040 (16:9)
Frame rate                       : 23.976 fps
Stream size                      : 4.99 GiB (78%)
Title                            : Hellboy (2004) 1080p multi [mkvonly]
Writing library                  : x264
Encoding settings                : very high

Audio  English DTS 1500 KB/s, 1.29 GiB (20%)

Optional Audio Tracks (demuxed):
Ceština (Cze)   AC3  640KB/s, 558 MB
Español  (Spa)  AC3  640KB/s, 558 MB
Italiano       AC3  448 KB/s, 390 MB
Magyar (Hun)   AC3  640KB/s, 558 MB
Português    AC3  640KB/s, 558 MB
Russkyi    AC3  640KB/s, 558 MB

Use MPC (  http://cccp-project.net/  ) to automatically recognize & play
the external Audio tracks or mux the Audio in MKV with  mkvmerge 
(  http://www.videohelp.com/tools/MKVtoolnix  ) if you wish to use other player.

Subtitles:
English, Bulgarian, Chinese(2), Croatian, Czech, Danish, Dutch, Estonian, 
Finnish, German, Hungarian, Icelandic, Indonesian, Latvian, Lithuanian, 
Polish, Portuguese, Romanian, Serbian, Slovenian, Spanish, Swedish, Turkish 
~~~~~~~~~~~~~~~~~~~~~~~~~~~~~~~~~~~~~~~~~~~~~~~~~~~~~~~~~~~~~~~~~~~~~~~~~~~~~~~~~~

Hellboy II The Golden Army (2008) 1080p multi [mkvonly]

Format                           : Matroska
File size                        : 6.30 GiB
Duration                         : 1h 59mn
Overall bit rate                 : 7.5 MB/s

Video
Format/Info                      : Advanced Video Codec
Format profile                   : High@L5.0
Bit rate                         : 6 MB/s
Display aspect ratio             : 1920 x 1040 (16:9)
Frame rate                       : 23.976 fps
Stream size                      : 4.91 GiB (78%)
Title                            : Hellboy II The Golden Army (2008) 1080p multi [mkvonly]
Writing library                  : x264
Encoding settings                : very high

Audio  English DTS 1500 KB/s, 1.26 GiB (20%)

Optional Audio Tracks (demuxed):
Ceština (Cze)   DTS 768 KB/s, 645 MB
Español  (Spa)  DTS 768 KB/s, 645 MB
Italiano       AC3 448 KB/s, 383 MB
Magyar (Hun)   DTS 768 KB/s, 645 MB
Português    DTS 768 KB/s, 645 MB
Russkyi    DTS 768 KB/s, 645 MB

SUBTITLES (* forced included):
English, Bulgarian, Chinese, Croatian, *Czech, Danish, Dutch, Finnish,
 Greek, Hebrew, *Hungarian, Icelandic, Korean, Norwegian, Polish,
 *Portuguese, Romanian, *Russian, Spanish, Spanish, Swedish, Thai, Turkish

~~~~~~~~~~~~~~~~~~~~~~~~~~~~~~~~~~~~~~~~~~~~~~~~~~~~~~~~~~~~~~~~~~~~~~~~~~~~~~~~~~
~~~~~~~~~~~~~~~~~~~~~~~~~~~~~~~~~~~~~~~~~~~~~~~~~~~~~~~~~~~~~~~~~~~~~~~~~~~~~~~~~~
You want more of this practically lossless quality in smallest size possible?
Then check out my torrents:   http://thepiratebay.org/user/mkvonly/

Feel free to upload my torrents to other trackers but please don't rename them. Leave the [mkvonly] in the title. Thanks.
If you upload them re-muxed please mention it in description "Re-muxed from..."

~~~~~~~~~~~~~~~~~~~~~~~~~~~~~~~~~~~~~~~~~~~~~~~~~~~~~~~~~~~~~~~~~~~~~~~~~~~~~~~~~~
~~~~~~~~~~~~~~~~~~~~~~~~~~~~~~~~~~~~~~~~~~~~~~~~~~~~~~~~~~~~~~~~~~~~~~~~~~~~~~~~~~